<svg xmlns="http://www.w3.org/2000/svg" width="480" height="200" viewBox="0 0 480 200">
  <defs>
    <linearGradient id="sky" x1="0%" y1="0%" x2="0%" y2="100%">
      <stop offset="0%" stop-color="#1a2030"/>
      <stop offset="100%" stop-color="#2a3040"/>
    </linearGradient>
  </defs>
  <rect width="480" height="200" fill="url(#sky)"/>
  <!-- Мостовая -->
  <rect x="0" y="150" width="480" height="50" fill="#1a1810"/>
  <!-- Прилавки -->
  <rect x="10" y="110" width="100" height="50" fill="#2a1a08"/>
  <rect x="10" y="105" width="100" height="8" fill="#c84020"/>
  <rect x="130" y="115" width="90" height="45" fill="#2a1a08"/>
  <rect x="130" y="110" width="90" height="8" fill="#204080"/>
  <rect x="260" y="110" width="100" height="50" fill="#2a1a08"/>
  <rect x="260" y="105" width="100" height="8" fill="#208040"/>
  <rect x="380" y="115" width="90" height="45" fill="#2a1a08"/>
  <rect x="380" y="110" width="90" height="8" fill="#804020"/>
  <!-- Товары на прилавках -->
  <circle cx="40" cy="108" r="6" fill="#c84020"/>
  <circle cx="55" cy="106" r="7" fill="#e06030"/>
  <circle cx="70" cy="108" r="6" fill="#c84020"/>
  <rect x="160" y="100" width="8" height="15" fill="#c8a040"/>
  <rect x="175" y="98" width="8" height="17" fill="#c8a040"/>
  <rect x="190" y="102" width="8" height="13" fill="#c8a040"/>
  <!-- Силуэты людей -->
  <ellipse cx="120" cy="130" rx="10" ry="7" fill="#0d0c0a"/>
  <rect x="110" y="130" width="20" height="30" fill="#0d0c0a"/>
  <ellipse cx="250" cy="125" rx="12" ry="8" fill="#0d0c0a"/>
  <rect x="238" y="125" width="24" height="35" fill="#0d0c0a"/>
  <ellipse cx="370" cy="128" rx="10" ry="7" fill="#0d0c0a"/>
  <rect x="360" y="128" width="20" height="32" fill="#0d0c0a"/>
  <!-- Здания на фоне -->
  <rect x="0" y="20" width="80" height="100" fill="#0f0e0c"/>
  <rect x="400" y="30" width="80" height="90" fill="#0f0e0c"/>
  <rect x="180" y="10" width="120" height="90" fill="#0f0e0c"/>
  <!-- Окна -->
  <rect x="20" y="40" width="20" height="15" fill="#1a2030" rx="1"/>
  <rect x="50" y="40" width="20" height="15" fill="#1a2030" rx="1"/>
  <rect x="415" y="50" width="20" height="15" fill="#1a2030" rx="1"/>
  <rect x="445" y="50" width="20" height="15" fill="#1a2030" rx="1"/>
  <rect x="200" y="25" width="20" height="15" fill="#c8a040" opacity="0.4" rx="1"/>
  <rect x="240" y="25" width="20" height="15" fill="#1a2030" rx="1"/>
  <!-- Флаги -->
  <line x1="240" y1="0" x2="240" y2="15" stroke="#5a4030" stroke-width="2"/>
  <polygon points="240,0 260,5 240,10" fill="#c84020"/>
  <text x="240" y="195" font-family="serif" font-size="12" fill="#8a7050" text-anchor="middle" opacity="0.8">Городской рынок</text>
</svg>
