<svg xmlns="http://www.w3.org/2000/svg" width="480" height="200" viewBox="0 0 480 200">
  <defs>
    <radialGradient id="fire" cx="50%" cy="80%" r="40%">
      <stop offset="0%" stop-color="#ff6600" stop-opacity="0.6"/>
      <stop offset="100%" stop-color="#1a0a00" stop-opacity="0"/>
    </radialGradient>
    <linearGradient id="bg" x1="0%" y1="0%" x2="0%" y2="100%">
      <stop offset="0%" stop-color="#0d0805"/>
      <stop offset="100%" stop-color="#1a0f08"/>
    </linearGradient>
  </defs>
  <!-- Фон -->
  <rect width="480" height="200" fill="url(#bg)"/>
  <!-- Стены -->
  <rect x="0" y="60" width="480" height="140" fill="#1c1008"/>
  <!-- Балки потолка -->
  <rect x="0" y="55" width="480" height="8" fill="#2a1a0a"/>
  <rect x="80" y="55" width="12" height="145" fill="#2a1a0a"/>
  <rect x="240" y="55" width="12" height="145" fill="#2a1a0a"/>
  <rect x="390" y="55" width="12" height="145" fill="#2a1a0a"/>
  <!-- Очаг -->
  <rect x="190" y="120" width="100" height="80" fill="#0d0805"/>
  <rect x="185" y="115" width="110" height="10" fill="#3a2010"/>
  <ellipse cx="240" cy="200" rx="50" ry="8" fill="url(#fire)"/>
  <rect x="210" y="140" width="8" height="40" fill="#cc4400" opacity="0.8"/>
  <rect x="225" y="130" width="6" height="50" fill="#ff6600" opacity="0.9"/>
  <rect x="238" y="135" width="7" height="45" fill="#ff8800" opacity="0.8"/>
  <rect x="252" y="142" width="6" height="38" fill="#cc4400" opacity="0.7"/>
  <!-- Столы -->
  <rect x="20" y="155" width="120" height="8" fill="#3a2010"/>
  <rect x="30" y="163" width="10" height="37" fill="#2a1808"/>
  <rect x="120" y="163" width="10" height="37" fill="#2a1808"/>
  <rect x="330" y="155" width="130" height="8" fill="#3a2010"/>
  <rect x="340" y="163" width="10" height="37" fill="#2a1808"/>
  <rect x="440" y="163" width="10" height="37" fill="#2a1808"/>
  <!-- Кружки на столах -->
  <rect x="50" y="148" width="10" height="12" fill="#5a3a10" rx="2"/>
  <rect x="70" y="145" width="10" height="15" fill="#5a3a10" rx="2"/>
  <rect x="360" y="148" width="10" height="12" fill="#5a3a10" rx="2"/>
  <!-- Свечи -->
  <rect x="100" y="140" width="4" height="15" fill="#e8d080"/>
  <ellipse cx="102" cy="138" rx="3" ry="4" fill="#ff9900" opacity="0.8"/>
  <rect x="380" y="140" width="4" height="15" fill="#e8d080"/>
  <ellipse cx="382" cy="138" rx="3" ry="4" fill="#ff9900" opacity="0.8"/>
  <!-- Окно -->
  <rect x="400" y="70" width="60" height="50" fill="#0a1520" rx="2"/>
  <rect x="428" y="70" width="4" height="50" fill="#2a1a0a"/>
  <rect x="400" y="93" width="60" height="4" fill="#2a1a0a"/>
  <!-- Силуэты людей -->
  <ellipse cx="55" cy="148" rx="12" ry="8" fill="#0d0805"/>
  <rect x="43" y="148" width="24" height="30" fill="#0d0805"/>
  <ellipse cx="95" cy="145" rx="10" ry="7" fill="#0d0805"/>
  <rect x="85" y="145" width="20" height="30" fill="#0d0805"/>
  <ellipse cx="370" cy="148" rx="12" ry="8" fill="#0d0805"/>
  <rect x="358" y="148" width="24" height="30" fill="#0d0805"/>
  <!-- Надпись -->
  <text x="240" y="40" font-family="serif" font-size="16" fill="#c8a040" text-anchor="middle" opacity="0.8">Таверна «Золотой Кубок»</text>
</svg>
